<svg xmlns="http://www.w3.org/2000/svg" xmlns:xlink="http://www.w3.org/1999/xlink" version="1.1" width="256" height="256" viewBox="0 0 256 256" xml:space="preserve">

<defs>
</defs>
<g style="stroke: none; stroke-width: 0; stroke-dasharray: none; stroke-linecap: butt; stroke-linejoin: miter; stroke-miterlimit: 10; fill: none; fill-rule: nonzero; opacity: 1;" transform="translate(1.4065934065934016 1.4065934065934016) scale(2.81 2.81)" >
	<path d="M 0 10.361 v 69.278 C 0 85.361 4.639 90 10.361 90 h 69.278 C 85.361 90 90 85.361 90 79.639 V 10.361 C 90 4.639 85.361 0 79.639 0 H 10.361 C 4.639 0 0 4.639 0 10.361 z M 29.713 57.314 c 1.019 7.794 1.918 10.993 6.744 11.028 c 1.578 0.011 2.982 1.242 3.075 2.818 c 0.103 1.74 -1.277 3.183 -2.995 3.183 c -10.649 0 -11.877 -9.393 -12.773 -16.251 C 22.746 50.306 21.885 48.019 18.172 48 c -1.418 -0.007 -2.719 -1.008 -2.989 -2.4 c -0.372 -1.92 1.089 -3.6 2.942 -3.6 c 3.753 0 4.617 -2.273 5.639 -10.092 c 0.894 -6.836 2.116 -16.191 12.673 -16.25 c 1.328 -0.007 2.594 0.819 2.967 2.094 c 0.6 2.044 -0.917 3.906 -2.867 3.906 c -4.896 0 -5.8 3.192 -6.824 11.028 c -0.535 4.094 -1.196 9.146 -4.045 12.3 c -0.008 0.008 -0.008 0.02 0 0.029 C 28.518 48.168 29.178 53.22 29.713 57.314 z M 71.828 48 c -3.713 0.019 -4.574 2.306 -5.593 10.092 c -0.894 6.837 -2.116 16.193 -12.675 16.251 c -1.328 0.007 -2.593 -0.82 -2.966 -2.095 c -0.598 -2.044 0.917 -3.904 2.868 -3.904 c 4.896 0 5.8 -3.191 6.824 -11.028 c 0.535 -4.094 1.196 -9.147 4.045 -12.3 c 0.008 -0.008 0.008 -0.02 0 -0.029 c -2.848 -3.154 -3.509 -8.206 -4.045 -12.3 c -1.019 -7.793 -1.918 -10.993 -6.743 -11.028 c -1.579 -0.012 -2.983 -1.242 -3.076 -2.818 c -0.103 -1.739 1.277 -3.182 2.995 -3.182 c 10.649 0 11.877 9.393 12.773 16.25 C 67.258 39.727 68.122 42 71.875 42 c 1.853 0 3.313 1.68 2.942 3.6 C 74.547 46.992 73.246 47.993 71.828 48 z" style="stroke: none; stroke-width: 1; stroke-dasharray: none; stroke-linecap: butt; stroke-linejoin: miter; stroke-miterlimit: 10; fill: rgb(77,62,214); fill-rule: nonzero; opacity: 1;" transform=" matrix(1 0 0 1 0 0) " stroke-linecap="round" />
</g>
</svg>